<?xml version="1.0" encoding="UTF-8"?>
<svg id="Layer_1" xmlns="http://www.w3.org/2000/svg" xmlns:xlink="http://www.w3.org/1999/xlink" version="1.1" viewBox="0 0 512 512">
  <!-- Generator: Adobe Illustrator 30.4.0, SVG Export Plug-In . SVG Version: 2.1.4 Build 226)  -->
  <defs>
    <style>
      .st0 {
        fill: url(#linear-gradient2);
      }

      .st1 {
        fill: url(#linear-gradient1);
      }

      .st2 {
        fill: url(#linear-gradient3);
      }

      .st3 {
        fill: url(#linear-gradient);
      }

      .st4 {
        fill: #35a9e8;
      }

      .st5 {
        fill: #2bc1be;
      }

      .st6 {
        fill: #fdfefe;
      }
    </style>
    <linearGradient id="linear-gradient" x1="333.47" y1="250.39" x2="274.27" y2="214.49" gradientUnits="userSpaceOnUse">
      <stop offset="0" stop-color="#35a9e8"/>
      <stop offset="1" stop-color="#21cca8"/>
    </linearGradient>
    <linearGradient id="linear-gradient1" x1="409.54" y1="203.28" x2="373.15" y2="181.21" xlink:href="#linear-gradient"/>
    <linearGradient id="linear-gradient2" x1="158.1" y1="289.42" x2="97.36" y2="252.57" xlink:href="#linear-gradient"/>
    <linearGradient id="linear-gradient3" x1="525.11" y1="419.21" x2="-64.16" y2="61.78" xlink:href="#linear-gradient"/>
  </defs>
  <g>
    <path class="st5" d="M307.27,131.52c-.68-.02-1.35-.22-1.82-.72l.28-1.28c1.48.4,1.68,1.16,1.54,2Z"/>
    <g>
      <path class="st6" d="M165.76,422.64l.03,1.39c.03,1.56-.28,3.31.16,4.8l1.21.51c.24.1.29,1.14.07,1.42l-9.39,1.86c-.18-.81-.12-1.49.18-1.83.17-.19.59-.33,1.21-.43v-14.99s-5.31.86-5.31.86l-.07,15.01,1.49.5c.19.06.11,1.16-.09,1.2l-9.11,1.69c-.32-.23-.37-1.34-.16-1.53s.65-.35,1.28-.55l-.02-31.32c-.65-.19-.99-.36-1.23-.51-.27-.17-.28-1.26.16-1.35l8.95-1.75c.41.21.35,1.27.13,1.61-.17.26-.8.44-1.36.67l-.04,14.46,5.4-1.06-.06-14.24c-1.17,0-1.52-.57-1.47-1.25.05-.62.55-.79,1.35-.96l7.59-1.64c.86-.19.9,1.15.72,1.56-.2.44-.82.7-1.59.95v24.93Z"/>
      <path class="st6" d="M255.81,381.1l-1.29-.71c-.21-.12-.15-.93-.03-1.5l9.25-1.63c.32.42.31,1.35.13,1.56-.24.27-.78.42-1.63.6l.17,30.82c.84,1.37,5,.99,5.02-.97l.29-30.43-1.32-.39c-.3-.09-.33-.85-.17-1.63l9.45-1.69c.21.73.15,1.36-.08,1.64-.2.24-.82.41-1.44.65l-.05,29.54c0,2.05-1.93,3.97-3.78,4.32l-9.87,1.87c-1.75.33-3.37-.27-4.61-1.55l-.03-30.49Z"/>
      <path class="st6" d="M314.69,403.24c-2.16.38-4.16-1.03-4.16-3.04v-8.36c2.11-.48,4.27-1.04,6.29-.89l.51,9.59c.07,1.36,4.29.48,4.31-1.02l.17-11.35c.02-1.21-.95-2.02-2.1-2.17l-6.53-.85c-1.62-.21-2.7-1.84-2.69-3.51l.09-9.29c.02-2.25,2.3-4,4.45-4.38l8.97-1.6c2.13-.38,4.24,1.08,4.23,3.26l-.02,7.58-6.25,1.19-.54-9.32c-.07-1.2-4.24-.46-4.27.87l-.24,10.34c-.03,1.29.93,1.97,2.12,2.11l6.21.68c1.88.21,3.01,1.84,3.02,3.75l.05,9.03c.01,2.5-1.08,4.11-3.26,5.54l-10.39,1.83Z"/>
      <path class="st6" d="M371.4,375.63l-.07,14.95,5-.99.25-7.5c.04-1.21,2.57-1.41,3.46-1.04l.03,9.73-16.46,3.19c-.41.08-.44-.99-.32-1.32.16-.42.52-.83,1.55-.96l.04-30.88c-.53-.11-1.08-.19-1.29-.32-.28-.17-.34-1.05-.12-1.59l16.57-3.14.09,9.64c-1.08.64-2.24.85-3.65.66l-.18-7.75-4.93.98v14.3s6.51-1.14,6.51-1.14c.35.62.28,1.61.02,1.91l-6.49,1.27Z"/>
      <path class="st6" d="M219.55,416.91c0,5.07-8.64,6.1-14.55,6.48-2.29.15-3.79-1.29-3.78-3.47l.05-26.59c0-2.98,2.28-5.02,5.09-5.49l8.92-1.51c2.04-.34,4.26.83,4.26,3.07v27.5ZM213,419.25l.07-30.14c-1.09-1.22-5.06-.63-5.07,1.17l-.13,30.48c1.43,1.07,5.12.64,5.13-1.51Z"/>
    </g>
    <g>
      <path class="st6" d="M258.08,199.81c-.33.07-1.32.08-1.61.34-.22.19-.15.54.04,1l-.32,3.52.06,51.84.02,30.14c0,3.35-2.31,6.23-4.68,8.34-1.69,1.5-4.05,1.78-6.22,2.27l-13.07,2.98-30.75,7.08-3.02.66-21.37,4.63-.1-4.88c3.23-1.14,4.87-3.51,4.87-6.96l-.02-84.4-4.81.65.05-4.77,36-7.67v4.72s-4.55,1.17-4.55,1.17v90.35s21.98-5,21.98-5l.02-86.06c.22-5.51,3.75-9.51,8.96-10.66l21.66-4.79-.09,4.82-3.05.69Z"/>
      <path class="st5" d="M296.64,186.75l-1.76.23c-.23-.67.06-.95.61-.99.68-.06,1.04.06,1.16.76Z"/>
      <g>
        <path class="st6" d="M302.92,129.99c.82.33,1.6.78,2.53.81.47.5,1.14.71,1.82.72h.26c.38.47.92.7,1.46.92l28.84,11.5v12.28s-35.08-13.88-35.08-13.88l-52.1-20.83-76.21,50.69-17.73,11.71-.02-12.42,6.5-4.16v-29.37c-.01-1.04-.78-1.87-1.45-2.24-.76-.42-1.64-.37-2.86-.05v-5.14s6.18-1.19,6.18-1.19c.78-.8,1.79-.93,2.93-.61l21.67-4.54.14,25.22,60.81-40.24,52.3,20.83Z"/>
        <path class="st5" d="M308.99,132.44c-.54-.21-1.09-.45-1.46-.91.27,0,.84-.14,1.21-.07.28.05.45.56.25.99Z"/>
      </g>
      <g>
        <path class="st6" d="M269.91,201.49c0-4.5,2.77-9.42,7.4-10.5l15.47-3.59,1.17-.07c.23-.01.5-.19.7-.29l.23-.06,1.76-.23,50.55-10.75.04,4.82-4.41,1v143.89c-.01,5.43-3.67,10.34-8.9,11.54l-55.79,12.87c-4.43,1.02-8.09-2.53-8.25-6.71v-31.83s25.59-5.93,25.59-5.93l.06,35.59,21.91-5.04v-55.31s-37.93,8.54-37.93,8.54c-2.43.87-4.61.54-6.85-.94-1.21-1.06-2.77-2.96-2.77-5.38v-81.61ZM317.47,276.12l-.02-89.07-21.96,4.74v89.18s21.98-4.86,21.98-4.86Z"/>
        <path class="st6" d="M403.39,217.69l-20.81,4.59-.02,38.66c1.55.08,2.73-.4,4.5-.8v4.78s-34.01,7.64-34.01,7.64l.06-4.79c1.96-.6,4.3-2.43,4.3-5.03l.08-83.94-4.49.81.02-4.85,67.27-14.2c4.02-.13,7.57,2.4,7.57,6.64l.1,83.83,4.48-.88-.1,4.17c-.03,1.32-1.94,1.06-2.87,1.27l-8.92,2.03c-.92.21-1.27.29-2.24.49l-6.97,1.43c-4.08.84-7.87-2.12-7.87-6.46l-.07-35.39ZM403.43,212.94l-.03-44.14-20.83,4.42v44.46s20.86-4.74,20.86-4.74Z"/>
        <path class="st5" d="M293.95,187.33c.13-.24.43-.33.7-.29-.19.1-.47.28-.7.29Z"/>
      </g>
      <path class="st6" d="M104.51,329.29l-11.99,2.82-5.59,1.12c-.27-1.61-.27-3.09-.13-5.01,2.34-.94,5.18-3.19,5.18-6.38v-125.79c0-3.02-2.67-4.95-5.13-5.38l-.09-4.9,8.93-2.02c1.16-.26,1.89-.31,3.07-.55l25.02-5.08.02,4.86-4.56,1.04-.03,40.11,40.94-8.38c4.45-.91,8.07,2.62,8.22,6.88l-.09,83.35c0,4.76-3.64,9.44-8.23,10.5l-48.84,11.31-6.71,1.5ZM141.69,315.79l-.05-91.4-22.43,4.75v91.73s22.48-5.08,22.48-5.08Z"/>
      <path class="st4" d="M208,390.28l-.13,30.48c1.43,1.07,5.12.64,5.13-1.51l.07-30.14c-1.09-1.22-5.06-.63-5.07,1.17Z"/>
    </g>
  </g>
  <g>
    <polygon class="st3" points="295.49 191.8 295.49 280.98 317.47 276.12 317.45 187.05 295.49 191.8"/>
    <polygon class="st1" points="382.57 173.22 382.57 217.68 403.43 212.94 403.4 168.8 382.57 173.22"/>
    <polygon class="st0" points="119.21 229.14 119.21 320.87 141.69 315.79 141.64 224.4 119.21 229.14"/>
    <path class="st2" d="M508.8,97.07c-.01-22.93-10.45-45.19-24.72-62.15-1.64-.5-1.74-1.14-2.3-2.31-17.8-18.96-42.42-30.73-68.69-31.39l-47.19-.11H99.77c-1.58,0-2.55.05-4.09.18-28.74,2.39-55.52,16.71-72.8,40.15C11.34,57.08,3.16,76.76,3.15,96.65l-.1,318.07c0,16.42,5.64,32.59,13.37,46.46l2.11,3.31c17.85,27.97,48.6,45.75,81.95,46.27l36.47.13,274.56-.22c45.06-.04,83.87-32.33,94.69-75.48,1.58-6.3,2.75-12.51,2.74-19.23l-.15-318.89ZM165.8,424.03c.03,1.56-.28,3.31.16,4.8l1.21.51c.24.1.29,1.14.07,1.42l-9.39,1.86c-.18-.81-.12-1.49.18-1.83.17-.19.59-.33,1.21-.43v-14.99s-5.3.86-5.3.86l-.08,15.01,1.49.5c.19.06.11,1.16-.09,1.2l-9.11,1.69c-.32-.23-.37-1.34-.16-1.53.21-.19.65-.35,1.28-.55l-.02-31.32c-.65-.19-.99-.36-1.23-.51-.27-.17-.28-1.26.16-1.35l8.95-1.75c.41.21.35,1.27.13,1.61-.17.26-.8.44-1.36.67l-.04,14.46,5.4-1.06-.06-14.24c-1.17,0-1.52-.57-1.47-1.25.05-.62.55-.79,1.35-.96l7.59-1.64c.86-.19.9,1.15.72,1.56-.2.44-.82.7-1.59.95v24.93s.02,1.39.02,1.39ZM168.28,305.97c0,4.76-3.64,9.44-8.23,10.5l-48.84,11.31-6.71,1.5-11.99,2.82-5.59,1.12c-.27-1.61-.27-3.09-.13-5.01,2.34-.94,5.18-3.19,5.19-6.38v-125.79c0-3.02-2.67-4.95-5.13-5.38l-.09-4.9,8.93-2.02c1.16-.26,1.89-.31,3.07-.55l25.02-5.08.02,4.86-4.56,1.04-.03,40.11,40.94-8.38c4.45-.91,8.07,2.62,8.22,6.88l-.09,83.35ZM156.72,183.9l-.02-12.42,6.5-4.16v-29.37c-.01-1.04-.78-1.87-1.45-2.24-.76-.42-1.64-.37-2.86-.05v-5.14s6.18-1.19,6.18-1.19c.78-.8,1.79-.93,2.93-.61l21.67-4.54.14,25.22,60.81-40.24,52.3,20.83c.82.33,1.6.78,2.53.81l.28-1.28c1.48.4,1.68,1.16,1.54,2h.26c.27.01.84-.14,1.21-.07.28.05.45.56.25.99l28.84,11.5v12.28s-35.08-13.88-35.08-13.88l-52.1-20.83-76.21,50.69-17.73,11.71ZM205.01,423.39c-2.29.15-3.79-1.29-3.78-3.47l.05-26.59c0-2.98,2.28-5.02,5.09-5.49l8.92-1.51c2.04-.34,4.26.83,4.26,3.07v27.5c0,5.07-8.63,6.1-14.54,6.48ZM251.59,295c-1.69,1.5-4.05,1.78-6.22,2.27l-13.07,2.98-30.75,7.08-3.02.66-21.37,4.63-.1-4.88c3.23-1.14,4.87-3.51,4.87-6.96l-.02-84.4-4.81.65.05-4.77,36-7.67v4.72s-4.55,1.17-4.55,1.17v90.35s21.98-5,21.98-5l.02-86.06c.22-5.51,3.75-9.51,8.96-10.66l21.66-4.79-.09,4.82-3.05.69c-.33.07-1.32.08-1.61.34-.22.19-.15.54.04,1l-.32,3.52.06,51.84.02,30.14c0,3.35-2.31,6.23-4.68,8.34ZM275.6,376.77c-.2.24-.82.41-1.44.65l-.05,29.54c0,2.05-1.93,3.97-3.78,4.32l-9.87,1.87c-1.75.33-3.37-.27-4.61-1.55l-.03-30.49-1.29-.71c-.21-.12-.15-.93-.03-1.5l9.25-1.63c.32.42.31,1.35.13,1.56-.24.27-.78.42-1.63.6l.17,30.82c.84,1.37,5,.99,5.02-.97l.29-30.43-1.32-.39c-.3-.09-.33-.85-.17-1.63l9.45-1.69c.21.73.15,1.36-.08,1.64ZM325.08,401.41l-10.39,1.83c-2.16.38-4.16-1.03-4.16-3.04v-8.36c2.11-.48,4.27-1.04,6.29-.89l.51,9.59c.07,1.36,4.29.48,4.31-1.02l.17-11.35c.02-1.21-.95-2.02-2.1-2.17l-6.53-.85c-1.62-.21-2.7-1.84-2.69-3.51l.09-9.29c.02-2.25,2.3-4,4.45-4.38l8.97-1.6c2.13-.38,4.24,1.08,4.23,3.26l-.02,7.58-6.25,1.19-.54-9.32c-.07-1.2-4.24-.46-4.27.87l-.24,10.34c-.03,1.29.93,1.97,2.12,2.11l6.21.68c1.88.21,3.01,1.84,3.02,3.75l.05,9.03c.01,2.5-1.08,4.11-3.26,5.54ZM342.83,181.82v143.89c-.01,5.43-3.67,10.34-8.9,11.54l-55.79,12.87c-4.43,1.02-8.09-2.53-8.25-6.71v-31.83s25.59-5.93,25.59-5.93l.06,35.59,21.91-5.04v-55.31s-37.93,8.54-37.93,8.54c-2.43.87-4.61.54-6.85-.94-1.21-1.06-2.77-2.96-2.77-5.38v-81.61c.01-4.5,2.78-9.42,7.41-10.5l15.47-3.59,1.17-.07c.13-.24.43-.33.7-.29l.23-.06c-.23-.67.06-.95.61-.99.68-.06,1.04.06,1.16.76l50.55-10.75.04,4.82-4.41,1ZM371.36,373.59l6.51-1.14c.35.62.28,1.61.02,1.91l-6.49,1.27-.07,14.95,5-.99.25-7.5c.04-1.21,2.57-1.41,3.46-1.04l.03,9.73-16.46,3.19c-.41.08-.44-.99-.32-1.32.16-.42.52-.83,1.55-.96l.04-30.88c-.53-.11-1.08-.19-1.29-.32-.28-.17-.34-1.05-.12-1.59l16.57-3.14.09,9.64c-1.08.64-2.24.85-3.65.66l-.18-7.75-4.93.98v14.3ZM432.33,254.32c-.03,1.32-1.94,1.06-2.87,1.27l-8.92,2.03c-.92.21-1.27.29-2.24.49l-6.97,1.43c-4.08.84-7.87-2.12-7.87-6.46l-.07-35.39-20.81,4.59-.02,38.66c1.55.08,2.73-.4,4.5-.8v4.78s-34.01,7.64-34.01,7.64l.06-4.79c1.96-.6,4.3-2.43,4.3-5.03l.08-83.94-4.49.81.02-4.85,67.27-14.2c4.02-.13,7.57,2.4,7.57,6.64l.1,83.83,4.48-.88-.1,4.17Z"/>
  </g>
</svg>